<svg xmlns="http://www.w3.org/2000/svg" width="66.957" height="66.904" viewBox="0 0 66.957 66.904">
  <g id="Group_834" data-name="Group 834" transform="translate(-730.351 -1165)">
    <g id="Group_833" data-name="Group 833" transform="translate(730.351 1165)">
      <path id="Path_9" data-name="Path 9" d="M35.207,7.956l.173.644,8.041-2.16.458-.123.035-.471c.1-1.312.238-2.818.31-4.339L44.25,1.3l.008-.019-.1-.042.075.069.021-.027-.1-.042.075.069-.125-.115.09.146.035-.031-.125-.115.09.146-.05-.081.035.088L44.2,1.34l-.05-.081.035.088.135-.013V1.146l-.006.188h.006V1.146l-.006.188h.015q1.09.009,2.181.008.912,0,1.823,0l.129.012.033-.1-.067.083.035.019.033-.1-.067.083.108-.135-.142.1.035.037.108-.135-.142.1.054-.038-.06.027.006.012.054-.038-.06.027a.736.736,0,0,1,.031.19c.1,1.519.256,3.023.375,4.37l.042.465.452.121L57.33,8.574l.456.121.265-.388,2.933-4.268-.552-.377-.333.579c1.546.89,3.068,1.767,4.623,2.662l.333-.577-.606-.281c-.731,1.583-1.371,2.993-2.035,4.387a1.546,1.546,0,0,0-.179.671,1.054,1.054,0,0,0,.16.562,1.437,1.437,0,0,0,.373.394A26.653,26.653,0,0,1,68.044,17.4l.327.438.494-.237,4.908-2.343-.287-.6-.587.319c.806,1.483,1.6,2.914,2.344,4.364L75.7,19.1h-.517l.06.235L75.7,19.1h-.2l-.312-.063-.006.063H75.5l-.312-.063.06.012-.058-.019,0,.008.06.012-.058-.019-.052.1-.031.04,0,0,.117.125-.1-.137-.017.012.117.125-.1-.137c-1.073.794-2.208,1.548-3.318,2.369a1.524,1.524,0,0,0-.408.485,1.375,1.375,0,0,0-.188.646.877.877,0,0,0,.067.338l.614-.263-.617.252a30.508,30.508,0,0,1,1.912,7.2l.012.077.11.277.154.388.417.031c1.452.112,2.954.263,4.479.327l.192.027.012,0,.056-.11-.112.05.056.06.056-.11-.112.05.006.027.01.121q0,.713,0,1.425,0,1.284-.006,2.569l-.012.119.09.029-.073-.058-.017.029.09.029-.073-.058.117.092-.087-.121-.031.029.117.092-.087-.121.027.037-.019-.042-.008.006.027.037-.019-.042-.187.033c-1.519.092-3.023.248-4.356.363l-.467.04-.119.452c-.725,2.718-1.421,5.331-2.146,8.056l-.121.456.39.265c1.069.731,2.275,1.61,3.556,2.408a.719.719,0,0,1,.188.148l.1-.054h-.117l.013.054.1-.054h-.112l-.006,0v0h.006l-.006,0-.088.2c-.744,1.3-1.477,2.612-2.246,3.973l.581.329.281-.606c-1.527-.71-2.893-1.317-4.22-1.971a1.7,1.7,0,0,0-.754-.2,1.268,1.268,0,0,0-.671.2,2.3,2.3,0,0,0-.464.4c-1.669,1.823-3.406,3.6-5.214,5.493l-.319.333.2.417c.637,1.331,1.371,2.864,2.135,4.458l.6-.287-.437-.506a14.886,14.886,0,0,1-4.437,2.587l.242.621.544-.385c-.86-1.217-1.733-2.4-2.527-3.61a1.89,1.89,0,0,0-.51-.548,1.3,1.3,0,0,0-.74-.223,2.463,2.463,0,0,0-.69.121c-2.148.64-4.343,1.183-6.541,1.766-.148.038-.337.071-.6.127l-.49.1-.038.5c-.112,1.5-.24,3-.327,4.516l-.023.194-.008.023.085.033-.069-.054-.015.021.085.033-.069-.054.158.121-.075-.187-.083.065.158.121-.075-.187.029.073-.021-.075-.008,0,.029.073-.021-.075-.065,0H48q-1.826,0-3.652,0l-.058,0h0l-.063.183.171-.088-.108-.094-.063.183.171-.088-.006,0,.008,0,0,0-.006,0,.008,0-.025-.165c-.085-1.35-.225-2.683-.331-4a1.546,1.546,0,0,0-.252-.8,1.26,1.26,0,0,0-.914-.5,26.629,26.629,0,0,1-7.229-1.981l-.5-.212-.308.45c-.831,1.217-1.7,2.419-2.5,3.7a.925.925,0,0,1-.165.21l-.006,0,.044.081v-.09l-.044.01.044.081v-.09l-.042-.012-.175-.083c-1.3-.752-2.6-1.487-3.935-2.244l-.331.579.606.283c.719-1.548,1.333-2.916,1.987-4.25a1.642,1.642,0,0,0,.192-.725,1.237,1.237,0,0,0-.192-.654,2.25,2.25,0,0,0-.388-.446c-1.823-1.673-3.6-3.41-5.52-5.239l-.333-.319-.415.2-4.468,2.137.287.6.51-.433a14.008,14.008,0,0,1-2.441-4.137l-.465.177h.5l-.035-.177-.465.177h.25l.238.087.012-.087h-.25l.238.087.042-.073.027-.033,0,0-.1-.106.085.115.012-.01-.1-.106.085.115c1.227-.9,2.483-1.764,3.639-2.577l.385-.269-.123-.45c-.727-2.683-1.433-5.293-2.179-8.043l-.123-.458-.471-.035c-1.2-.088-2.641-.246-4.1-.287a1.3,1.3,0,0,1-.321-.04l-.062-.025-.006.008.008-.006,0,0-.006.008.008-.006-.021-.062-.021-.248v-.044c.012-.6.015-1.2.015-1.8,0-.856-.008-1.712-.008-2.571h-.667l.062.664,5.135-.475L19.236,31l.119-.448c.723-2.7,1.419-5.314,2.148-8.039l.121-.454-.388-.267L17.1,18.952l-.377.55.627.229A14.143,14.143,0,0,1,19.682,15.6l-.313-.256.2.356.115-.1-.315-.256.2.356-.077-.137.054.148.023-.012-.077-.137.054.148.065-.01h.012l.038-.24-.1.223.058.017.038-.24-.1.223c1.117.481,2.225,1.015,3.352,1.537.315.146.633.287.775.352l.421.19.327-.329,5.872-5.885.333-.335-.2-.425c-.656-1.369-1.4-2.919-2.164-4.525l-.6.287.438.5a13.76,13.76,0,0,1,4.17-2.46l-.2-.512v.548l.2-.037-.2-.512V4.3l-.14.312.14.023V4.3l-.14.312.083.058.071.069c.894,1.227,1.766,2.479,2.558,3.6l.269.381.45-.121-.173-.644.546-.385c-.79-1.119-1.664-2.379-2.571-3.623a1.881,1.881,0,0,0-.419-.4L32.5,3.393a1.009,1.009,0,0,0-.408-.094L31.8,3.35a15.142,15.142,0,0,0-4.566,2.7l-.383.335.217.458c.769,1.606,1.51,3.158,2.164,4.525l.6-.287-.471-.473L23.5,16.494l.471.471.275-.608c-.154-.069-.462-.206-.764-.346-1.115-.515-2.233-1.056-3.385-1.55a1.189,1.189,0,0,0-.483-.092,1.558,1.558,0,0,0-.456.067,1.021,1.021,0,0,0-.508.321A15.459,15.459,0,0,0,16.1,19.273l-.179.487.427.292,4.137,2.843.379-.55-.646-.173c-.727,2.725-1.425,5.335-2.148,8.037l.646.173-.062-.665-5.135.477-.606.056v.61c0,.867.008,1.723.008,2.571,0,.6,0,1.189-.015,1.777l.667.013-.667-.029,0,.087a2.324,2.324,0,0,0,.087.662,1.381,1.381,0,0,0,.646.815,2.131,2.131,0,0,0,.99.231c1.39.038,2.8.19,4.037.285l.05-.667-.644.175c.746,2.752,1.452,5.362,2.179,8.043l.644-.175L20.5,44.1c-1.15.81-2.414,1.681-3.658,2.589a1.565,1.565,0,0,0-.4.454,1.255,1.255,0,0,0-.2.64l.052.3a15.325,15.325,0,0,0,2.671,4.527L19.3,53l.463-.221,4.468-2.135-.287-.6-.462.483c1.91,1.823,3.695,3.566,5.539,5.256l.158.169,0,0L29.3,55.9h-.129l.012.054L29.3,55.9h-.085l-.044-.008V55.9h.044l-.044-.008-.058.146c-.667,1.362-1.283,2.737-2,4.273l-.26.558.535.3c1.337.76,2.639,1.494,3.929,2.241a1.771,1.771,0,0,0,.885.273,1.257,1.257,0,0,0,.76-.258,2.067,2.067,0,0,0,.5-.573c.762-1.223,1.623-2.412,2.469-3.648l-.552-.377-.26.615a27.9,27.9,0,0,0,7.591,2.075l.054.01,0,0,.077-.165-.165.075.088.09.077-.165-.165.075v0l.023.154c.108,1.34.246,2.666.329,3.979a1.524,1.524,0,0,0,.312.9,1.11,1.11,0,0,0,.467.331,1.459,1.459,0,0,0,.527.088q1.829,0,3.656.006h.565a1.461,1.461,0,0,0,.573-.106,1.155,1.155,0,0,0,.614-.615,1.968,1.968,0,0,0,.138-.675c.083-1.487.212-2.983.325-4.491l-.667-.048.138.652c.235-.05.437-.083.669-.142,2.183-.579,4.391-1.123,6.581-1.777a1.322,1.322,0,0,1,.308-.065l.012,0,.008-.058-.021.052.013.006.008-.058-.021.052.012-.029-.019.027.008,0,.012-.029-.019.027a.683.683,0,0,1,.142.175c.823,1.252,1.706,2.444,2.554,3.648l.3.425.487-.188a16.247,16.247,0,0,0,4.825-2.819l.388-.335-.221-.46c-.764-1.6-1.5-3.129-2.135-4.46l-.6.288.483.462c1.8-1.887,3.543-3.67,5.233-5.514l.185-.173,0-.006,0,.006h0l0-.006,0,.006-.033-.108v.113l.033-.006-.033-.108v.1l0,.015h0V50.67l0,.015.165.063c1.358.671,2.733,1.283,4.248,1.987l.558.26.3-.537c.771-1.365,1.5-2.671,2.246-3.97a1.753,1.753,0,0,0,.262-.858,1.238,1.238,0,0,0-.248-.74,1.947,1.947,0,0,0-.556-.487c-1.227-.765-2.418-1.629-3.508-2.377l-.377.552.644.171C73.3,42.027,74,39.413,74.721,36.7l-.646-.173.058.665c1.348-.117,2.839-.271,4.322-.36a1.542,1.542,0,0,0,1.01-.387,1.4,1.4,0,0,0,.389-1.031q0-1.287,0-2.573c0-.477,0-.952,0-1.429a1.436,1.436,0,0,0-.377-1.05,1.55,1.55,0,0,0-1.067-.4c-1.471-.06-2.958-.21-4.431-.323l-.052.665.621-.244-.081-.206-.621.246.66-.1a31.847,31.847,0,0,0-2-7.514l-.006-.012-.438.19h.481l-.042-.19-.438.19h.2l.275.052.006-.052h-.281l.275.052-.046-.008.046.013v-.006l-.046-.008.046.013.044-.088.029-.037,0,0-.115-.123.1.135.015-.012-.115-.123.1.135c1.075-.8,2.208-1.55,3.318-2.371a1.529,1.529,0,0,0,.41-.487,1.331,1.331,0,0,0,.192-.644.81.81,0,0,0-.087-.373c-.754-1.479-1.558-2.919-2.36-4.395l-.3-.556-.571.273L68.29,16.4l.288.6.533-.4a27.924,27.924,0,0,0-5.539-5.6l-.046-.04,0,0-.181.152h.229l-.048-.152-.181.152H63.4l.169.031,0-.031H63.4l.169.031.008-.027.044-.1c.669-1.408,1.312-2.821,2.041-4.4l.256-.554-.529-.3L60.766,3.083l-.535-.308-.35.508q-1.627,2.371-2.931,4.268l.55.379.173-.646L49.633,5.139l-.173.644.665-.058c-.121-1.362-.277-2.854-.373-4.339a1.523,1.523,0,0,0-.379-1,1.2,1.2,0,0,0-.5-.31A1.743,1.743,0,0,0,48.331,0q-.912,0-1.819,0Q45.427.008,44.342,0l-.006.667L44.357,0h-.037a1.73,1.73,0,0,0-.562.083,1.2,1.2,0,0,0-.687.583,1.843,1.843,0,0,0-.183.779c-.071,1.483-.21,2.973-.308,4.3l.665.05-.173-.646L35.034,7.312l.173.644.546-.385Z" transform="translate(-12.899)" fill="#f47e1f"/>
      <path id="Path_10" data-name="Path 10" d="M43.325,26.592a16.468,16.468,0,0,0-.01-1.987,11.748,11.748,0,0,0-4.391-7.247c-2.06-1.744-3.86-1.025-4.454,1.769L37.4,20.743c-1.7,1.6-3.237,3.046-4.864,4.575-.608-.517-1.137-.975-1.671-1.421-1.569-1.312-3.05-2.483-3.437-4.852-.435-2.664-4.031-3.3-5.881-1.287,2.175.49,3.6,1.5,3.275,2.612-.533,1.854-2.066,2.331-4.21,1.744a4.065,4.065,0,0,0,4.55,1.556,2.8,2.8,0,0,1,1.948.248c1.24.867,2.337,1.944,3.862,3.256a17.981,17.981,0,0,0-1.694,1.208c-1.816,1.65-3.654,3.285-5.356,5.048a2.1,2.1,0,0,0-.352,1.948,2.672,2.672,0,0,0,1.906.81c.412.031.933-.475,1.292-.846,2.042-2.112,4.05-4.252,6.133-6.449.5.4.933.721,1.333,1.075,1.1.977,2.358,1.712,2.187,3.648-.135,1.508,1.527,2.373,3.391,2.033-1.35-.858-1.942-2.15-.958-3.277.85-.973,2.237-.869,3.425.479-.16-1.817-1.1-2.806-2.408-2.7-2.614.21-3.529-1.925-5.312-3.054,1.658-1.741,3.152-3.312,4.793-5.033,1.292,1.475,2.481,2.829,3.97,4.527M37,30.219l-.525.606q-4.48-3.848-8.96-7.7l.506-.592L37,30.219" transform="translate(-5.775 15.154)" fill="#f47e1f"/>
      <path id="Path_11" data-name="Path 11" d="M41.555,17.9l1.156.794A4.784,4.784,0,0,1,41.7,20.481l-.194.008-1.081-.5-1.362,1.356.581,1.217a4.921,4.921,0,0,1-1.858,1.075l-.75-1.054-.169-.1c-.56.156-1.117.321-1.708.494l-.083,1.165-.263.287a5.4,5.4,0,0,1-1.723-.01l-.21-.223-.088-1.1-.142-.187c-.554-.127-1.1-.267-1.689-.412l-.689,1.014-.287.087a5.326,5.326,0,0,1-1.548-.889l-.06-.3.492-1.046c-.464-.46-.9-.89-1.364-1.356l-1.21.579a4.717,4.717,0,0,1-1.039-1.764l.1-.188,1.029-.727c-.127-.46-.258-.9-.367-1.354s-.1-.456-.589-.487l-.79-.06-.2-.183a5.252,5.252,0,0,1,0-1.827l.187-.171,1.1-.088.231-.2c.119-.54.263-1.075.4-1.635l-1.164-.8a4.779,4.779,0,0,1,1-1.771l.21-.021,1.142.523,1.271-1.229.006-.194-.5-1.033.06-.262a5.4,5.4,0,0,1,1.562-.9l.287.1.712,1.015c.46-.127.9-.26,1.354-.369s.46-.1.487-.589l.056-.812.16-.173a5.288,5.288,0,0,1,1.825-.006l.2.21.094,1.123.167.187q.747.182,1.487.4l.237-.077.733-1.075a4.768,4.768,0,0,1,1.787,1.008l.012.194-.49,1.06.05.227,1.106,1.1.231.042,1.05-.51.229.048a5.144,5.144,0,0,1,.931,1.617l-.073.221-1.046.735c.129.467.26.919.371,1.377.1.427.094.431.542.463l.812.052.219.185a5.421,5.421,0,0,1,0,1.806l-.212.194-1.121.106-.165.1c-.146.564-.279,1.129-.423,1.721" transform="translate(-2.319 4.9)" fill="#f47e1f"/>
      <path id="Path_12" data-name="Path 12" d="M49.854,24.51l1.156.794A4.769,4.769,0,0,1,50,27.093l-.194.01-1.081-.5-1.362,1.356.581,1.217a4.936,4.936,0,0,1-1.858,1.075l-.75-1.054-.169-.1c-.56.156-1.117.323-1.708.5l-.083,1.164-.263.287a5.4,5.4,0,0,1-1.723-.01l-.21-.223-.088-1.1-.142-.187c-.554-.127-1.1-.267-1.689-.412l-.689,1.014-.287.087a5.325,5.325,0,0,1-1.548-.889l-.06-.3.49-1.046L35.8,26.624l-1.21.579a4.717,4.717,0,0,1-1.039-1.764l.1-.188,1.029-.727c-.127-.46-.258-.9-.367-1.354s-.1-.456-.589-.487l-.79-.06-.2-.183a5.241,5.241,0,0,1,0-1.825l.187-.173,1.1-.088.231-.2c.119-.54.263-1.075.4-1.635l-1.164-.8a4.794,4.794,0,0,1,1-1.771l.21-.021,1.142.523,1.271-1.229.006-.192L36.63,14l.06-.26a5.359,5.359,0,0,1,1.562-.906l.287.1.712,1.015c.46-.127.9-.26,1.352-.369s.462-.1.489-.589l.056-.812L41.3,12A5.288,5.288,0,0,1,43.13,12l.2.21.094,1.123.167.187q.747.182,1.487.4l.237-.077.733-1.075a4.768,4.768,0,0,1,1.787,1.008l.012.194-.49,1.06.05.227,1.106,1.1.231.042,1.05-.51.229.048a5.143,5.143,0,0,1,.931,1.617l-.073.221-1.046.735c.127.467.26.919.369,1.377.106.427.094.431.544.464l.812.052.219.185a5.433,5.433,0,0,1,0,1.808l-.212.194-1.121.1-.165.1c-.146.564-.279,1.129-.423,1.721" transform="translate(5.343 11.004)" fill="#f47e1f"/>
    </g>
  </g>
</svg>
