<svg xmlns="http://www.w3.org/2000/svg" width="53.113" height="53.115" viewBox="0 0 53.113 53.115">
  <g id="Group_829" data-name="Group 829" transform="translate(-1052.502 -779.608)">
    <path id="Path_16" data-name="Path 16" d="M377.477,5.618c3,0,6.008-.005,9.013,0a4.878,4.878,0,0,1,5.112,5.148c.005,6.008-.01,12.016.012,18.025a5.147,5.147,0,0,1-1.506,3.834Q377.846,44.9,365.564,57.158a4.8,4.8,0,0,1-7.182-.1q-9.133-9.11-18.239-18.24a4.8,4.8,0,0,1-.055-7.182q12.2-12.263,24.459-24.473a5.2,5.2,0,0,1,3.918-1.554c3,.036,6.008.01,9.011.01M388.5,19.812q0-4.4,0-8.8c0-1.684-.613-2.285-2.321-2.285-5.835,0-11.67.014-17.505-.015a2.854,2.854,0,0,0-2.193.917q-11.957,12-23.942,23.963c-1.227,1.227-1.225,2.015.007,3.247q8.933,8.938,17.872,17.87c1.191,1.189,2,1.2,3.173.029q12.019-12.006,24.036-24.014a2.838,2.838,0,0,0,.891-2.2c-.039-2.9-.015-5.8-.015-8.7" transform="translate(714 774)" fill="#f47e1f"/>
    <path id="Path_17" data-name="Path 17" d="M364.379,13.561a1.51,1.51,0,0,1-1.537-1.477,1.572,1.572,0,0,1,1.525-1.619,1.644,1.644,0,0,1,1.568,1.61,1.571,1.571,0,0,1-1.556,1.485" transform="translate(731.359 777.465)" fill="#f47e1f"/>
    <path id="Path_18" data-name="Path 18" d="M358.723,13.153l-.062.062,3.12,3.118a8.215,8.215,0,0,1,1.448,2.088,4.62,4.62,0,0,1,.344,3.363l-.024.026-5.575-5.575q-.026-.026-2.885.5v.1l7.022,7.024a2.91,2.91,0,0,1-.908.613q-3.464,1.57-7.343-2.308a14.982,14.982,0,0,1-1.35-1.523l-.087.036-1.633,1.634q-.036.036-1.179,15.028l3.132,3.13q1.2-15.421,1.326-15.544l.024-.024a10.78,10.78,0,0,0,4.113,2.467,7.271,7.271,0,0,0,3.536.32,7.091,7.091,0,0,0,2.935-1.266l2.186,2.186q.023.026,2.847-.54l-.012-.111L366.335,24.6a5.823,5.823,0,0,0,.971-2.739l3.156,3.156a25.55,25.55,0,0,0,2.9-.54l.024-.024L361.572,12.637q-.039-.036-2.849.516" transform="translate(721.924 779.012)" fill="#f47e1f"/>
  </g>
</svg>
