<svg xmlns="http://www.w3.org/2000/svg" width="53.562" height="63" viewBox="0 0 53.562 63">
  <g id="Group_831" data-name="Group 831" transform="translate(-945.841 -776.934)">
    <path id="Path_13" data-name="Path 13" d="M247.62,14.92l.074.276,3.444-.925.2-.052.014-.2c.042-.562.1-1.205.134-1.857l.01-.09,0-.006-.042-.02.032.03.01-.01-.042-.02.032.03-.052-.05.038.064.014-.014-.052-.05.038.064-.022-.036.016.038.006,0-.022-.036.016.038.058,0V12l0,.082h0V12l0,.082h.008c.31,0,.622,0,.933,0,.26,0,.52,0,.78,0l.056.006.014-.044-.028.036.014.008.014-.044-.028.036.046-.058-.062.042.016.016.046-.058-.062.042.024-.016-.026.01,0,.006.024-.016-.026.01a.35.35,0,0,1,.012.082c.042.652.11,1.3.162,1.871l.018.2.194.052c1.157.308,2.275.608,3.442.917l.2.052.114-.166q.558-.813,1.255-1.827l-.236-.162-.142.248c.662.382,1.313.758,1.979,1.139l.142-.248-.258-.12c-.314.68-.588,1.283-.871,1.879a.668.668,0,0,0-.078.288.469.469,0,0,0,.068.24.652.652,0,0,0,.16.17,11.4,11.4,0,0,1,2.259,2.287l.142.186.212-.1,2.1-1-.124-.258-.25.136c.346.636.688,1.249,1,1.869l.2-.1h-.222l.026.1.2-.1h-.086l-.132-.028,0,.028h.136l-.132-.028.024.006-.024-.008v0l.024.006-.024-.008-.022.042-.014.016v0l.05.054-.044-.058-.006,0,.05.054-.044-.058c-.46.34-.945.662-1.421,1.013a.689.689,0,0,0-.174.208.587.587,0,0,0-.08.278.368.368,0,0,0,.028.144l.264-.112-.266.108a13.063,13.063,0,0,1,.82,3.082l0,.034.048.118.066.168.178.012c.622.048,1.265.114,1.919.14l.082.012,0,0,.024-.048-.046.022.022.026.024-.048-.046.022,0,.012,0,.052v.61c0,.366,0,.734,0,1.1l0,.052.038.012-.032-.024-.006.012.038.012-.032-.024.05.04-.036-.052-.014.012.05.04-.036-.052.01.016-.008-.018,0,0,.01.016-.008-.018-.078.012c-.652.04-1.3.106-1.867.156l-.2.018-.052.194c-.31,1.163-.608,2.283-.917,3.45l-.052.194.166.114c.458.314.975.69,1.523,1.031a.423.423,0,0,1,.082.064l.044-.024h-.05l.006.024.044-.024h-.05l-.038.084c-.318.558-.634,1.119-.963,1.7l.25.142.12-.26c-.654-.3-1.239-.564-1.807-.844a.741.741,0,0,0-.322-.088.536.536,0,0,0-.288.086.921.921,0,0,0-.2.172c-.716.782-1.459,1.541-2.235,2.353l-.136.142.086.178c.274.572.588,1.227.913,1.911l.258-.124-.186-.216a6.421,6.421,0,0,1-1.9,1.107l.1.266.234-.164c-.368-.522-.742-1.027-1.083-1.547a.781.781,0,0,0-.218-.234.543.543,0,0,0-.316-.1,1.02,1.02,0,0,0-.3.052c-.919.274-1.861.506-2.8.756-.064.016-.144.03-.258.054l-.212.046-.016.214c-.048.64-.1,1.283-.14,1.933l-.01.084,0,.01.036.014-.03-.024-.006.01.036.014-.03-.024.068.052-.032-.08-.036.028.068.052-.032-.08.012.032-.01-.032h0l.012.032-.01-.032-.028,0H253.1l-1.563,0-.026,0-.028.078.074-.038-.046-.04-.028.078.074-.038,0,0,0,0,0,0,0,0-.01-.07c-.036-.578-.1-1.149-.142-1.713a.661.661,0,0,0-.108-.342.54.54,0,0,0-.392-.214,11.428,11.428,0,0,1-3.1-.847l-.214-.09-.132.192c-.356.522-.73,1.035-1.071,1.583a.334.334,0,0,1-.07.09l0,0,.018.034v-.04l-.018.006.018.034v-.04l-.018,0-.074-.036c-.558-.322-1.115-.636-1.685-.961l-.142.248.26.122c.308-.664.57-1.249.85-1.821a.679.679,0,0,0,.082-.31.506.506,0,0,0-.082-.28.963.963,0,0,0-.166-.192c-.782-.716-1.543-1.459-2.363-2.243l-.144-.136-.178.084-1.913.915.124.258.218-.186a6.026,6.026,0,0,1-1.045-1.771l-.2.076h.214l-.014-.076-.2.076h.108l.1.036,0-.036h-.106l.1.036.018-.03.012-.016h0l-.042-.046.036.05.006,0-.042-.046.036.05c.526-.384,1.063-.756,1.559-1.1l.164-.116-.052-.192c-.312-1.149-.614-2.267-.933-3.444l-.054-.2-.2-.016c-.518-.038-1.131-.1-1.757-.122a.557.557,0,0,1-.138-.018l-.026-.01,0,0,0,0h0l0,0,0,0-.01-.026-.01-.106V26.6c.006-.258.008-.514.008-.772,0-.366,0-.734,0-1.1h-.286l.026.284c.81-.074,1.533-.142,2.2-.2l.2-.018.05-.192c.31-1.157.61-2.275.919-3.442l.052-.2-.166-.114-1.771-1.217-.162.236.268.1a6.1,6.1,0,0,1,1-1.767l-.134-.11.086.152.05-.042-.136-.11.086.152-.032-.058.022.064.01-.006-.032-.058.022.064.028,0h0l.018-.1-.042.1.024.008.018-.1-.042.1c.48.206.953.434,1.435.658l.334.15.18.082.14-.14,2.514-2.52.142-.144-.088-.182c-.28-.586-.6-1.249-.925-1.937l-.258.122.188.216a5.873,5.873,0,0,1,1.785-1.053l-.084-.218V13.5l.084-.016-.084-.218v.09l-.06.134.06.01v-.144l-.06.134.036.026.03.028c.384.526.756,1.063,1.1,1.543l.116.164.192-.052-.074-.276.234-.164c-.338-.48-.714-1.019-1.1-1.553a.86.86,0,0,0-.18-.172l-.112-.066a.448.448,0,0,0-.176-.04l-.122.022a6.491,6.491,0,0,0-1.955,1.155l-.164.144.094.2c.328.688.646,1.351.925,1.939l.258-.124-.2-.2-2.514,2.52.2.2.118-.26c-.066-.03-.2-.088-.326-.148-.478-.222-.957-.454-1.449-.666a.5.5,0,0,0-.208-.038.663.663,0,0,0-.2.028.435.435,0,0,0-.216.138,6.606,6.606,0,0,0-1.093,1.933l-.076.208.182.126c.622.426,1.229.843,1.771,1.217l.162-.236-.276-.074c-.312,1.167-.61,2.285-.919,3.442l.276.074-.026-.284c-.666.062-1.391.128-2.2.2l-.26.024v.26c0,.372,0,.738,0,1.1,0,.256,0,.508-.008.762l.288.006-.286-.012,0,.036a.981.981,0,0,0,.038.284.581.581,0,0,0,.276.348.918.918,0,0,0,.424.1c.6.016,1.2.082,1.729.122l.022-.286-.276.074c.32,1.179.622,2.3.933,3.444l.276-.074-.166-.234c-.492.346-1.033.72-1.567,1.109a.668.668,0,0,0-.17.194.553.553,0,0,0-.086.274l.024.126a6.527,6.527,0,0,0,1.143,1.939l.142.168.2-.094,1.915-.915-.124-.258-.2.208c.818.78,1.583,1.527,2.373,2.251l.066.072,0,0,.05-.024h-.056l.006.024.05-.024h-.036l-.02,0v0h.02l-.02,0-.024.064c-.286.582-.55,1.171-.856,1.829l-.11.24.228.13c.572.326,1.129.64,1.683.959a.764.764,0,0,0,.378.116.538.538,0,0,0,.326-.11.867.867,0,0,0,.214-.246c.326-.524.7-1.031,1.057-1.563l-.236-.16-.112.264a11.971,11.971,0,0,0,3.252.887l.022.006h0l.032-.072-.07.032.038.04.032-.072-.07.032v0l.01.066c.046.574.106,1.141.14,1.7a.65.65,0,0,0,.134.388.484.484,0,0,0,.2.142.646.646,0,0,0,.226.038l1.565,0h.242a.623.623,0,0,0,.246-.046.483.483,0,0,0,.262-.264.844.844,0,0,0,.06-.288c.036-.638.092-1.277.14-1.923l-.286-.022.06.28c.1-.02.186-.034.286-.06.935-.248,1.881-.482,2.818-.762a.568.568,0,0,1,.132-.028h0l0-.024-.01.022.006,0,0-.024-.01.022.006-.012-.008.012h0l.006-.012-.008.012a.253.253,0,0,1,.06.074c.354.536.732,1.047,1.093,1.563l.13.182.208-.082a6.96,6.96,0,0,0,2.067-1.207l.166-.142-.1-.2c-.326-.684-.64-1.339-.913-1.909l-.258.124.206.2c.772-.808,1.519-1.571,2.243-2.361l.078-.074,0,0,0,0,0,0,0,0-.014-.046v.048l.014,0-.014-.046v.042l0,.006h0v-.006l0,.006.072.028c.582.288,1.169.55,1.819.851l.238.11.13-.23c.332-.584.646-1.143.961-1.7a.76.76,0,0,0,.114-.368.511.511,0,0,0-.108-.316.825.825,0,0,0-.238-.21c-.526-.328-1.033-.7-1.5-1.017l-.162.236.276.074c.312-1.165.61-2.285.919-3.45l-.276-.072.024.284c.578-.05,1.215-.116,1.851-.154a.667.667,0,0,0,.432-.166.594.594,0,0,0,.166-.442c0-.366,0-.734,0-1.1v-.612a.622.622,0,0,0-.162-.45.672.672,0,0,0-.458-.172c-.63-.024-1.265-.088-1.9-.138l-.022.286.266-.106-.034-.088-.266.106.282-.042a13.622,13.622,0,0,0-.855-3.218l0,0-.188.082h.206l-.018-.082-.188.082h.086l.118.022,0-.022h-.12l.118.022-.02,0,.02.006v0l-.02,0,.02.006.018-.038.012-.016h0l-.05-.054.044.058.006,0-.05-.054.044.058c.46-.34.943-.664,1.419-1.015a.643.643,0,0,0,.176-.208.564.564,0,0,0,.082-.276.348.348,0,0,0-.036-.16c-.324-.634-.668-1.251-1.011-1.881l-.13-.24-.244.118-2.1,1,.124.258.228-.172a11.934,11.934,0,0,0-2.371-2.4l-.02-.018,0,0-.078.066h.1l-.02-.066-.078.066h.026l.072.012v-.012h-.072l.072.012,0-.01.018-.044c.286-.6.562-1.207.873-1.885l.11-.236-.226-.13-1.981-1.141-.228-.132-.15.218q-.7,1.013-1.255,1.827l.236.162.074-.276-3.444-.919-.074.278.286-.026c-.052-.584-.12-1.221-.16-1.857a.659.659,0,0,0-.162-.428.515.515,0,0,0-.216-.134.769.769,0,0,0-.23-.032c-.262,0-.522,0-.78,0-.31,0-.62,0-.929,0l0,.286.008-.286h-.014a.777.777,0,0,0-.242.034.518.518,0,0,0-.294.25.784.784,0,0,0-.078.334c-.03.636-.09,1.273-.132,1.843l.286.02-.076-.276-3.442.925.074.276.234-.164Z" transform="translate(720.219 782.571)" fill="#f47e1f"/>
    <path id="Path_14" data-name="Path 14" d="M285.327,23.94a58.982,58.982,0,0,1-1.669,18.015c-2.894,10.66-9.732,17.857-19.7,22.249-5.247,2.311-5.271,2.3-10.53-.006-12.011-5.273-18.889-14.459-20.78-27.41a93.183,93.183,0,0,1-.588-18.881c.216-3.7,2.588-5.966,6.246-6.382,1.623-.186,3.252-.376,4.855-.684a23.989,23.989,0,0,0,11.521-5.667c.4-.354.8-.706,1.205-1.051a3.906,3.906,0,0,1,5.637.022,24.024,24.024,0,0,0,9.558,5.819,61.3,61.3,0,0,0,8.287,1.561,6.606,6.606,0,0,1,5.93,5.906c.16,2.159.03,4.337.03,6.508M258.707,6.616c-.356.294-.65.574-.979.8-2.245,1.561-4.4,3.29-6.77,4.621a27.734,27.734,0,0,1-11.9,3.1c-2.553.17-3.362,1.6-3.4,3.64a107.844,107.844,0,0,0,.62,17.3c1.649,11.657,7.693,20,18.539,24.669,4.781,2.061,3,2.051,7.761,0,8.443-3.628,14.4-9.662,17.178-18.575a49.47,49.47,0,0,0,2.019-13.434c.1-3.522.016-7.052-.106-10.576-.064-1.853-1-2.7-2.836-2.944-.486-.066-.973-.146-1.463-.186a28.7,28.7,0,0,1-15.525-5.8c-1.065-.818-2.067-1.721-3.138-2.618" transform="translate(714 774)" fill="#f47e1f"/>
    <path id="Path_15" data-name="Path 15" d="M246.309,23.9c2.5-2.5,4.765-4.8,7.08-7.05.412-.4,1.063-.877,1.537-.814a2.325,2.325,0,0,1,1.691,1.059,2.427,2.427,0,0,1-.428,2.059c-1.545,1.741-3.254,3.336-4.9,4.985-1.1,1.1-2.187,2.211-3.3,3.3-1.143,1.117-2,1.111-3.164-.016-.967-.941-1.933-1.889-2.86-2.868a1.845,1.845,0,1,1,2.614-2.58c.584.57,1.1,1.211,1.733,1.929" transform="translate(723.456 787.084)" fill="#f47e1f"/>
  </g>
</svg>
